{"title":"Friends with Benefits 2011 R5 LiNE x264 Feel-Free","uid":6628099,"size":1354525736,"categoryP":"video","categoryS":"movies","magnet":"?xt=urn:btih:c8312f4a6d4d9f5592a0ad9ff3b2ca89f012b28e&amp;dn=Friends+with+Benefits+2011+R5+LiNE+x264+Feel-Free&amp;tr=udp%3A%2F%2Ftracker.openbittorrent.com%3A80&amp;tr=udp%3A%2F%2Fopen.demonii.com%3A1337&amp;tr=udp%3A%2F%2Ftracker.coppersurfer.tk%3A6969&amp;tr=udp%3A%2F%2Fexodus.desync.com%3A6969","seeders":2,"leechers":0,"uploader":".BONE.","files":8,"time":1314226370,"description":"\nGenre:Comedy | Romance\nLanguage:English\n &lt;a href=&quot;\nhttp://www.imdb.com/title/tt1632708/&quot; rel=&quot;nofollow&quot; target=&quot;_NEW&quot;&gt;\nhttp://www.imdb.com/title/tt1632708/&lt;/a&gt;\n\nSource:DVD.RELiZLAB/IMAGINE Thanks!\n\nFormat : MPEG-4\nFormat profile : Base Media\nCodec ID : isom\nFile size : 1.26 GiB\nDuration : 1h 44mn\nOverall bit rate : 1 719 Kbps\n\nVideo\nID : 1\nFormat : AVC\nFormat/Info : Advanced Video Codec\nFormat profile : &lt;a class=&quot;__cf_email__&quot; href=&quot;/cdn-cgi/l/email-protection&quot; data-cfemail=&quot;c78faea0af878bf3e9f6&quot;&gt;[email&amp;#160;protected]&lt;/a&gt;&lt;script cf-hash='f9e31' type=&quot;text/javascript&quot;&gt;\n/* &lt;![CDATA[ */!function(){try{var t=&quot;currentScript&quot;in document?document.currentScript:function(){for(var t=document.getElementsByTagName(&quot;script&quot;),e=t.length;e--;)if(t[e].getAttribute(&quot;cf-hash&quot;))return t[e]}();if(t&amp;&amp;t.previousSibling){var e,r,n,i,c=t.previousSibling,a=c.getAttribute(&quot;data-cfemail&quot;);if(a){for(e=&quot;&quot;,r=parseInt(a.substr(0,2),16),n=2;a.length-n;n+=2)i=parseInt(a.substr(n,2),16)^r,e+=String.fromCharCode(i);e=document.createTextNode(e),c.parentNode.replaceChild(e,c)}}}catch(u){}}();/* ]]&gt; */&lt;/script&gt;\nFormat settings, CABAC : Yes\nFormat settings, ReFrames : 3 frames\nCodec ID : avc1\nCodec ID/Info : Advanced Video Coding\nDuration : 1h 44mn\nBit rate mode : Variable\nBit rate : 1 500 Kbps\nMaximum bit rate : 7 070 Kbps\nWidth : 720 pixels\nHeight : 304 pixels\nDisplay aspect ratio : 2.35:1\nFrame rate mode : Constant\nFrame rate : 25.000 fps\nColor space : YUV\nChroma subsampling : 4:2:0\nBit depth : 8 bits\nScan type : Progressive\nBits/(Pixel*Frame) : 0.274\nStream size : 1.09 GiB (87%)\nWriting library : x264\n\nAudio\nID : 2\nFormat : AAC\nFormat/Info : Advanced Audio Codec\nFormat version : Version 4\nFormat profile : LC\n\nFormat settings, SBR : No\nCodec ID : 40\nDuration : 1h 44mn\nBit rate mode : Variable\nBit rate : 224 Kbps\nMaximum bit rate : 282 Kbps\nChannel(s) : 2 channels\nChannel positions : Front: L R\nSampling rate : 44.1 KHz\nStream size : 168 MiB (13%)\n\nPlot:\nWhile trying to avoid the clichTs of Hollywood romantic comedies, Dylan and Jamie soon discover however that adding the act of sex to their friendship does lead to complications.\n &lt;a href=&quot;\nhttp://www.pix2links.com/images/15938490578900007931.png&quot; rel=&quot;nofollow&quot; target=&quot;_NEW&quot;&gt;\nhttp://www.pix2links.com/images/15938490578900007931.png&lt;/a&gt;\n &lt;a href=&quot;\nhttp://www.pix2links.com/images/40912015012971576323.png&quot; rel=&quot;nofollow&quot; target=&quot;_NEW&quot;&gt;\nhttp://www.pix2links.com/images/40912015012971576323.png&lt;/a&gt;\n &lt;a href=&quot;\nhttp://www.pix2links.com/images/43876020474218714680.png&quot; rel=&quot;nofollow&quot; target=&quot;_NEW&quot;&gt;\nhttp://www.pix2links.com/images/43876020474218714680.png&lt;/a&gt;\n &lt;a href=&quot;\nhttp://www.pix2links.com/images/21092941293407879893.png&quot; rel=&quot;nofollow&quot; target=&quot;_NEW&quot;&gt;\nhttp://www.pix2links.com/images/21092941293407879893.png&lt;/a&gt;","torrent":{"xt":"urn:btih:c8312f4a6d4d9f5592a0ad9ff3b2ca89f012b28e","amp;dn":"Friends+with+Benefits+2011+R5+LiNE+x264+Feel-Free","amp;tr":["udp%3A%2F%2Ftracker.openbittorrent.com%3A80","udp%3A%2F%2Fopen.demonii.com%3A1337","udp%3A%2F%2Ftracker.coppersurfer.tk%3A6969","udp%3A%2F%2Fexodus.desync.com%3A6969"],"infoHash":"c8312f4a6d4d9f5592a0ad9ff3b2ca89f012b28e","infoHashBuffer":{"type":"Buffer","data":[200,49,47,74,109,77,159,85,146,160,173,159,243,178,202,137,240,18,178,142]},"announce":[],"urlList":[]}}